<svg width="19.17522430419922" height="18" viewBox="0 0 19.17522430419922 18" xmlns="http://www.w3.org/2000/svg" xmlns:xlink="http://www.w3.org/1999/xlink" fill="#777"><g><path d="M 17.89,9.352q0-0.352 -0.532-0.352l-10.929,0 q-0.402,0 -0.859,0.216t-0.718,0.527l-2.953,3.646q-0.181,0.241 -0.181,0.402q0,0.352 0.532,0.352l 10.929,0 q 0.402,0 0.864-0.221t 0.713-0.532l 2.953-3.646q 0.181-0.221 0.181-0.392zM 6.429,7.714l 7.714,0 l0-1.607 q0-0.402 -0.281-0.683t-0.683-0.281l-5.786,0 q-0.402,0 -0.683-0.281t-0.281-0.683l0-0.643 q0-0.402 -0.281-0.683t-0.683-0.281l-3.214,0 q-0.402,0 -0.683,0.281t-0.281,0.683 l0,8.568 l 2.571-3.164q 0.442-0.532 1.165-0.879t 1.406-0.347zM 19.175,9.352q0,0.623 -0.462,1.205l-2.963,3.646q-0.432,0.532 -1.165,0.879t-1.406,0.347l-10.929,0 q-0.924,0 -1.587-0.663t-0.663-1.587l0-9.643 q0-0.924 0.663-1.587t 1.587-0.663l 3.214,0 q 0.924,0 1.587,0.663t 0.663,1.587l0,0.321 l 5.464,0 q 0.924,0 1.587,0.663t 0.663,1.587l0,1.607 l 1.929,0 q 0.542,0 0.994,0.246t 0.673,0.708q 0.151,0.321 0.151,0.683z "></path></g></svg>